<svg width="155" height="155" viewBox="0 0 155 155" fill="none" xmlns="http://www.w3.org/2000/svg">
<path fill-rule="evenodd" clip-rule="evenodd" d="M147.523 110.754C152.317 100.677 155 89.402 155 77.5C155 34.6979 120.302 0 77.5 0C34.6979 0 0 34.6979 0 77.5C0 120.302 34.6979 155 77.5 155C89.402 155 100.677 152.317 110.754 147.523C105.968 142.807 103 136.25 103 129C103 114.641 114.641 103 129 103C136.25 103 142.807 105.968 147.523 110.754Z" fill="#D94545"/>
<circle cx="130" cy="129" r="18" fill="#15D028"/>
<g filter="url(#filter0_d_1_367)">
<path fill-rule="evenodd" clip-rule="evenodd" d="M42.8298 51C42.8298 45.4772 47.307 41 52.8298 41H115.757C121.279 41 125.757 45.4772 125.757 51V84.9427C125.757 90.4655 121.279 94.9427 115.757 94.9427H113.933L107.763 105.63C106.993 106.963 105.069 106.963 104.299 105.63L98.1288 94.9427H52.8298C47.307 94.9427 42.8298 90.4655 42.8298 84.9427V51ZM74.2293 68.3739C74.2293 71.4864 71.706 74.0097 68.5935 74.0097C65.4809 74.0097 62.9577 71.4864 62.9577 68.3739C62.9577 65.2613 65.4809 62.7381 68.5935 62.7381C71.706 62.7381 74.2293 65.2613 74.2293 68.3739ZM84.6964 74.0097C87.809 74.0097 90.3322 71.4865 90.3322 68.3739C90.3322 65.2613 87.809 62.7381 84.6964 62.7381C81.5839 62.7381 79.0606 65.2613 79.0606 68.3739C79.0606 71.4865 81.5839 74.0097 84.6964 74.0097ZM106.434 68.3739C106.434 71.4865 103.91 74.0097 100.798 74.0097C97.6852 74.0097 95.1619 71.4865 95.1619 68.3739C95.1619 65.2613 97.6852 62.7381 100.798 62.7381C103.91 62.7381 106.434 65.2613 106.434 68.3739Z" fill="#242425"/>
<path fill-rule="evenodd" clip-rule="evenodd" d="M94.791 100.578H47.4549C41.932 100.578 37.4549 96.1012 37.4549 90.5783V65.8584C33.682 67.2892 31 70.9373 31 75.2118V97.109C31 102.35 35.0313 106.649 40.162 107.074L44.5876 114.74C45.3574 116.073 47.2819 116.073 48.0517 114.74L52.4573 107.109H85.4092C89.7123 107.109 93.3806 104.391 94.791 100.578Z" fill="white"/>
</g>
<defs>
<filter id="filter0_d_1_367" x="27" y="41" width="102.757" height="82.7397" filterUnits="userSpaceOnUse" color-interpolation-filters="sRGB">
<feFlood flood-opacity="0" result="BackgroundImageFix"/>
<feColorMatrix in="SourceAlpha" type="matrix" values="0 0 0 0 0 0 0 0 0 0 0 0 0 0 0 0 0 0 127 0" result="hardAlpha"/>
<feOffset dy="4"/>
<feGaussianBlur stdDeviation="2"/>
<feComposite in2="hardAlpha" operator="out"/>
<feColorMatrix type="matrix" values="0 0 0 0 0 0 0 0 0 0 0 0 0 0 0 0 0 0 0.25 0"/>
<feBlend mode="normal" in2="BackgroundImageFix" result="effect1_dropShadow_1_367"/>
<feBlend mode="normal" in="SourceGraphic" in2="effect1_dropShadow_1_367" result="shape"/>
</filter>
</defs>
</svg>
