<svg height="85.333336" viewBox="0 0 85.333336 85.333336" width="85.333336" xmlns="http://www.w3.org/2000/svg"><g transform="matrix(.13333333 0 0 -.13333333 0 85.333333)"><path d="m640 320c0-176.73-143.27-320-320-320s-320 143.27-320 320 143.27 320 320 320 320-143.27 320-320" fill="#77caa9"/><g fill="#62a48d"><path d="m424.613 199.996c-6.707 0-13.261 3.379-17.047 9.508-5.793 9.402-2.871 21.723 6.532 27.523l101.238 62.414.07.559-.07.559-101.238 62.414c-9.403 5.8-12.325 18.121-6.532 27.523 3.782 6.133 10.336 9.508 17.047 9.508 3.582 0 7.207-.961 10.481-2.977l106.297-65.543 1.652-1.648c7.973-7.973 12.363-18.563 12.363-29.836 0-11.266-4.39-21.859-12.359-29.828l-1.656-1.656-106.297-65.543c-3.274-2.016-6.903-2.977-10.481-2.977"/><path d="m215.387 199.996c-3.578 0-7.207.961-10.481 2.977l-106.2966 65.543-1.6563 1.656c-7.9687 7.969-12.3593 18.562-12.3593 29.828 0 11.273 4.3906 21.863 12.3632 29.836l1.6524 1.648 106.2966 65.543c3.274 2.016 6.899 2.977 10.481 2.977 6.707 0 13.258-3.375 17.047-9.508 5.793-9.402 2.871-21.723-6.532-27.523l-101.238-62.414-.07-.559.07-.559 101.238-62.414c9.403-5.8 12.325-18.121 6.532-27.523-3.782-6.129-10.34-9.508-17.047-9.508"/><path d="m254.996 109.996c-2.375 0-4.793.426-7.141 1.32-10.316 3.95-15.484 15.508-11.539 25.829l130 340c3.047 7.964 10.637 12.863 18.688 12.863 2.375 0 4.789-.426 7.141-1.324 10.316-3.95 15.484-15.508 11.539-25.829l-130-340c-3.047-7.968-10.637-12.859-18.688-12.859"/></g><path d="m424.613 220c-6.707 0-13.265 3.367-17.047 9.504-5.793 9.402-2.871 21.726 6.536 27.516l101.226 62.414v1.132l-101.226 62.414c-9.407 5.79-12.329 18.114-6.536 27.516 5.801 9.406 18.114 12.336 27.524 6.524l106.305-65.536 1.656-1.648c16.441-16.457 16.441-43.215 0-59.668l-1.656-1.652-106.305-65.536c-3.27-2.023-6.899-2.98-10.477-2.98" fill="#fff"/><path d="m215.387 220c-3.578 0-7.203.957-10.477 2.98l-106.3084 65.536-1.6524 1.652c-16.4414 16.453-16.4414 43.211 0 59.668l1.6524 1.648 106.3084 65.536c9.391 5.812 21.731 2.882 27.524-6.524 5.793-9.402 2.871-21.726-6.536-27.516l-101.226-62.414v-1.132l101.226-62.414c9.407-5.79 12.329-18.114 6.536-27.516-3.782-6.137-10.34-9.504-17.047-9.504" fill="#fff"/><path d="m254.996 129.988c-2.375 0-4.793.434-7.141 1.328-10.316 3.95-15.484 15.508-11.539 25.825l130 340c3.95 10.308 15.508 15.496 25.829 11.543 10.316-3.95 15.484-15.508 11.539-25.825l-130-340c-3.047-7.964-10.637-12.871-18.688-12.871" fill="#fff"/></g></svg>